<svg xmlns="http://www.w3.org/2000/svg" xmlns:xlink="http://www.w3.org/1999/xlink" viewBox="0 0 91 91"><defs><style>.cls-1{fill:url(#未命名的渐变_2);}.cls-2{fill:#fff;}</style><linearGradient id="未命名的渐变_2" x1="74.79" y1="-0.72" x2="2.94" y2="112.65" gradientUnits="userSpaceOnUse"><stop offset="0" stop-color="#27c3cf"/><stop offset="1" stop-color="#0d64aa"/></linearGradient></defs><title>imtoken</title><g id="图层_2" data-name="图层 2"><g id="图层_1-2" data-name="图层 1"><rect class="cls-1" width="91" height="91" rx="24" ry="24"/><path id="Combined-Shape" class="cls-2" d="M77.28,25.08c2,27.59-16.36,40.7-32.78,42.14-15.27,1.37-29.61-7.71-30.83-21.68C12.66,34,20,29,25.84,28.54s11,3.46,11.38,8.28c.43,4.61-2.59,6.77-4.68,6.92a3.44,3.44,0,0,1-3.89-2.88c-.14-1.8.58-2,.36-3.89-.29-3.39-3.31-3.75-5-3.61-2,.15-5.69,2.45-5.19,8.14S25,51.66,32.4,51c8-.72,13.54-6.7,14-15.2a2.75,2.75,0,0,1,.29-1.29h0A1.66,1.66,0,0,1,47,34h0a6.69,6.69,0,0,1,.65-.79h0a6.11,6.11,0,0,1,.72-.72c3.45-3.17,16.06-10.73,27.95-8.43.07,0,.21.07.29.07a1,1,0,0,1,.72.94"/></g></g></svg>